<svg width="1200" height="630" viewBox="0 0 1200 630" fill="none" xmlns="http://www.w3.org/2000/svg" role="img" aria-labelledby="title desc">
  <title id="title">GloTm share card</title>
  <desc id="desc">GloTm Gateway와 인하우스 팀을 위한 cross-border trademark operating guide를 소개하는 대표 공유 이미지</desc>
  <defs>
    <linearGradient id="bg" x1="112" y1="66" x2="1088" y2="564" gradientUnits="userSpaceOnUse">
      <stop stop-color="#F4ECDF"/>
      <stop offset="0.58" stop-color="#F8F3EA"/>
      <stop offset="1" stop-color="#E7F0EE"/>
    </linearGradient>
    <linearGradient id="accent" x1="274" y1="154" x2="929" y2="486" gradientUnits="userSpaceOnUse">
      <stop stop-color="#0E6B6D"/>
      <stop offset="1" stop-color="#B45F2F"/>
    </linearGradient>
  </defs>
  <rect width="1200" height="630" rx="36" fill="url(#bg)"/>
  <rect x="58" y="58" width="1084" height="514" rx="30" fill="#FFFDF9" stroke="#D8D0C3" stroke-width="2"/>
  <circle cx="174" cy="146" r="18" fill="#0E6B6D" fill-opacity="0.16"/>
  <circle cx="1022" cy="493" r="26" fill="#B45F2F" fill-opacity="0.14"/>
  <path d="M143 461C251 345 354 287 452 287C543 287 618 335 708 335C796 335 870 293 966 203" stroke="url(#accent)" stroke-width="24" stroke-linecap="round" opacity="0.16"/>
  <text x="120" y="154" fill="#B45F2F" font-size="28" font-family="Iowan Old Style, Palatino Linotype, Book Antiqua, serif" letter-spacing="4">GloTm Gateway</text>
  <text x="120" y="266" fill="#273A3E" font-size="72" font-weight="700" font-family="Iowan Old Style, Palatino Linotype, Book Antiqua, serif">Cross-border Trademark</text>
  <text x="120" y="340" fill="#273A3E" font-size="72" font-weight="700" font-family="Iowan Old Style, Palatino Linotype, Book Antiqua, serif">Operating Guide</text>
  <text x="120" y="412" fill="#456268" font-size="31" font-family="-apple-system, BlinkMacSystemFont, Segoe UI, sans-serif">여러 국가·권역의 시장 우선순위, 출원 경로, 브랜드 포트폴리오 관리,</text>
  <text x="120" y="454" fill="#456268" font-size="31" font-family="-apple-system, BlinkMacSystemFont, Segoe UI, sans-serif">침해 대응, 집행 판단에 필요한 정보를 한곳에 모아 제공합니다.</text>
  <g transform="translate(120 502)">
    <rect width="194" height="44" rx="22" fill="#0E6B6D" fill-opacity="0.1"/>
    <text x="28" y="30" fill="#0E6B6D" font-size="22" font-weight="700" font-family="-apple-system, BlinkMacSystemFont, Segoe UI, sans-serif">7 live guides</text>
  </g>
  <g transform="translate(330 502)">
    <rect width="258" height="44" rx="22" fill="#B45F2F" fill-opacity="0.1"/>
    <text x="28" y="30" fill="#B45F2F" font-size="22" font-weight="700" font-family="-apple-system, BlinkMacSystemFont, Segoe UI, sans-serif">flagship to incubate</text>
  </g>
</svg>
